<?xml version="1.0" standalone="no"?><!DOCTYPE svg PUBLIC "-//W3C//DTD SVG 1.1//EN" "http://www.w3.org/Graphics/SVG/1.1/DTD/svg11.dtd"><svg t="1731037878904" class="icon" viewBox="0 0 1024 1024" version="1.1" xmlns="http://www.w3.org/2000/svg" p-id="12857" xmlns:xlink="http://www.w3.org/1999/xlink" width="200" height="200"><path d="M986.145402 549.798777c0 261.601008-212.600215 474.201223-474.201223 474.201223s-474.201223-212.600215-474.201223-474.201223 212.600215-474.201223 474.201223-474.201223c71.525351 0 139.494193 16.597043 200.350017 45.444284l-30.427912-64.8075c-9.484024-19.363217-0.790335-43.073278 18.968049-52.557303 19.758384-9.088857 43.073278-0.790335 52.557302 18.968049l67.573675 143.050702c9.088857 19.758384 0.790335 43.073278-18.968049 52.557303l-143.050703 67.573674c-5.532348 2.371006-11.064695 3.556509-16.597042 3.556509a39.516769 39.516769 0 0 1-35.96026-22.524558c-9.088857-19.758384-0.790335-43.468445 18.968049-52.557302l49.791129-23.314894A382.64087 382.64087 0 0 0 511.944179 154.631091c-217.737395 0-395.167686 177.430291-395.167685 395.167686s177.430291 395.167686 395.167685 395.167686 395.167686-177.430291 395.167686-395.167686c0-11.459863-0.790335-22.919726-1.580671-34.379589h79.033538c0.790335 11.459863 1.580671 22.919726 1.58067 34.379589z" p-id="12858" fill="currentColor"></path></svg>