<svg t="1720104308509" class="icon" viewBox="0 0 1024 1024" version="1.1" xmlns="http://www.w3.org/2000/svg" p-id="1012" width="1em" height="1em"><path d="M812.98014815 88.2976237H209.59585975c-67.44544395 0-122.4633205 54.88842272-122.4633205 122.46332049v603.3842884c0 67.44544395 54.88842272 122.4633205 122.4633205 122.4633205h603.3842884c67.44544395 0 122.4633205-54.88842272 122.46332049-122.4633205V210.76094419c0-67.57489778-54.88842272-122.4633205-122.46332049-122.46332049z m56.7007763 725.84760889c0 31.19837235-25.37295013 56.7007763-56.7007763 56.7007763H209.59585975c-31.19837235 0-56.7007763-25.37295013-56.70077628-56.7007763V210.76094419c0-31.19837235 25.37295013-56.7007763 56.70077628-56.70077629h603.3842884c31.19837235 0 56.7007763 25.37295013 56.7007763 56.70077629v603.3842884z m0 0" fill="currentColor" p-id="1013"></path><path d="M351.73616197 496.20663309h131.00727309v-71.45851259H351.73616197v-84.66280297l134.76143408-33.14017975v-66.40981333L280.27764939 291.66958617v433.79977481l210.88028444-75.08321974v-74.56540444L351.73616197 615.56306173v-119.35642864z m186.8018726 271.85303704h71.4585126V331.54136494h94.63074765v259.29601581h-58.90149135l-0.12945384 67.83380542h127.38256592v-398.71778765H538.53803457v508.10627161z m0 0" fill="currentColor" p-id="1014"></path></svg>